<svg width="39" height="39" viewBox="0 0 39 39" fill="none" xmlns="http://www.w3.org/2000/svg">
<path d="M26.8333 31.3077C28.9416 31.3077 30.6475 33.0385 30.6475 35.1539C30.6475 37.2692 28.9416 39 26.8333 39C24.725 39 23 37.2692 23 35.1539C23 33.0385 24.725 31.3077 26.8333 31.3077ZM38.3333 0.538467V4.38462H34.5L27.6 18.9808L30.1875 23.6923C30.4941 24.2308 30.6666 24.8654 30.6666 25.5385C30.6666 27.6539 28.9416 29.3846 26.8333 29.3846H3.83331V25.5385H26.0283C26.2966 25.5385 26.5075 25.3269 26.5075 25.0577L26.45 24.8269L24.725 21.6923H10.4458C9.00831 21.6923 7.74331 20.9039 7.09164 19.7115L0.229973 7.23078C0.0766411 6.96154 -2.67029e-05 6.63462 -2.67029e-05 6.3077C-2.67029e-05 5.25001 0.862473 4.38462 1.91664 4.38462H30.2641L32.0658 0.538467H38.3333ZM7.66664 31.3077C9.77497 31.3077 11.4808 33.0385 11.4808 35.1539C11.4808 37.2692 9.77497 39 7.66664 39C5.55831 39 3.83331 37.2692 3.83331 35.1539C3.83331 33.0385 5.55831 31.3077 7.66664 31.3077Z" fill="black"/>
</svg>
