<svg width="16" height="14" viewBox="0 0 16 14" fill="none" xmlns="http://www.w3.org/2000/svg">
<path d="M8 11.319L4.24468 13.8123C4.0586 13.9447 3.85561 14.007 3.6357 13.9994C3.4158 13.9923 3.22127 13.9373 3.05211 13.8343C2.88295 13.7314 2.75202 13.5916 2.65932 13.4151C2.56594 13.2386 2.56155 13.0474 2.64613 12.8414L4.09243 8.75954L0.413231 6.48691C0.21024 6.36924 0.0833711 6.21479 0.0326234 6.02356C-0.0181242 5.83234 -0.00966616 5.65582 0.0579973 5.49402C0.125661 5.33221 0.244072 5.18865 0.413231 5.06332C0.582389 4.93858 0.78538 4.87622 1.0222 4.87622H5.56411L7.0358 0.639865C7.12037 0.433932 7.25164 0.275657 7.4296 0.165041C7.60687 0.055014 7.79701 0 8 0C8.20299 0 8.39313 0.055014 8.5704 0.165041C8.74836 0.275657 8.87963 0.433932 8.9642 0.639865L10.4359 4.87622H14.9778C15.2146 4.87622 15.4176 4.93858 15.5868 5.06332C15.7559 5.18865 15.8743 5.33221 15.942 5.49402C16.0097 5.65582 16.0181 5.83234 15.9674 6.02356C15.9166 6.21479 15.7898 6.36924 15.5868 6.48691L11.9076 8.75954L13.3539 12.8414C13.4385 13.0474 13.4344 13.2386 13.3417 13.4151C13.2483 13.5916 13.1171 13.7314 12.9479 13.8343C12.7787 13.9373 12.5842 13.9923 12.3643 13.9994C12.1444 14.007 11.9414 13.9447 11.7553 13.8123L8 11.319Z" fill="#D9D9D9"/>
</svg>
