<svg width="31" height="31" viewBox="0 0 31 31" fill="none" xmlns="http://www.w3.org/2000/svg">
<path d="M15.4997 0C6.93952 0 0 6.96515 0 15.5569C0 22.8525 5.00454 28.9745 11.7556 30.6559V20.3111H8.55955V15.5569H11.7556V13.5084C11.7556 8.21344 14.1432 5.75918 19.3225 5.75918C20.3046 5.75918 21.999 5.95271 22.6922 6.14561V10.4549C22.3264 10.4163 21.6909 10.397 20.9016 10.397C18.3603 10.397 17.3783 11.3634 17.3783 13.8755V15.5569H22.4411L21.5712 20.3111H17.3783V31C25.0531 30.0697 31 23.5109 31 15.5569C30.9994 6.96515 24.0599 0 15.4997 0Z" fill="#119146"/>
</svg>
