<svg width="44" height="236" viewBox="0 0 44 236" fill="none" xmlns="http://www.w3.org/2000/svg">
<path d="M0.120815 74.898C0.770325 78.6678 3.07503 81.2607 9.10917 85.0121C13.991 88.0279 15.8347 89.8301 16.3166 92.0736C16.3795 92.423 16.2957 98.2892 16.128 105.13C15.4576 131.886 15.2481 140.548 14.3471 176.866C13.8862 195.421 13.7186 202.63 13.5091 210.647C13.1529 224.384 13.1529 227.933 13.4881 229.092C14.2214 231.648 15.8557 233.505 18.2861 234.554C19.7737 235.216 20.0041 235.252 21.7641 235.252C24.2364 235.234 25.6192 234.774 27.3373 233.377C28.8039 232.2 29.6839 230.784 30.1868 228.761C30.5639 227.253 30.5639 226.922 29.8515 199.117C29.7258 194.722 29.2649 175.855 28.8039 157.19C28.343 138.525 27.882 119.198 27.7563 114.251C27.6306 109.286 27.4421 102.5 27.3792 99.1718C27.2954 95.825 27.2954 92.6437 27.4002 92.1104C27.7773 89.8485 29.4325 88.1751 34.2724 85.1776C37.897 82.9157 40.956 80.3964 41.9408 78.8517C42.7579 77.5645 43.3864 75.9278 43.554 74.5302C43.6379 73.9234 43.596 69.2893 43.4912 64.2323C43.2607 55.0376 43.0303 45.9717 42.6322 28.8329C42.1084 6.821 41.9827 2.77536 41.7731 2.11334C41.6474 1.72717 41.2493 1.12033 40.8932 0.770935C39.5732 -0.497925 37.6666 -0.148529 36.6818 1.52489C36.2418 2.26045 36.2418 2.27884 36.1371 32.6947C36.0742 50.0541 35.9485 63.2944 35.8438 63.4967C34.6705 65.7769 32.3238 65.9608 31.1086 63.8645L30.5848 62.9634L30.4801 32.5108C30.3753 4.65106 30.3544 2.02139 30.0191 1.52489C29.1182 0.0721436 27.5887 -0.405991 26.3107 0.366364C25.9126 0.587036 25.3888 1.12033 25.1583 1.52489L24.7183 2.26047L24.6136 34.9014L24.5088 67.5423L23.985 68.3331C22.7907 70.1904 20.7165 70.08 19.5223 68.1308L19.0613 67.3584L18.9566 34.7175C18.8518 4.79819 18.8308 2.03978 18.4956 1.52489C17.5947 0.0721436 16.0652 -0.405991 14.7871 0.366364C14.389 0.587036 13.8652 1.12033 13.6348 1.52489C13.1948 2.26045 13.1948 2.27884 13.09 32.6947C13.0272 50.0541 12.9015 63.2944 12.7967 63.4967C12.3777 64.3242 11.5815 65.0414 10.8901 65.2437C9.80058 65.5563 8.75299 65.0414 8.06158 63.8461L7.53778 62.9634L7.43302 32.5108C7.32826 4.65106 7.30731 2.02139 6.97208 1.52489C6.07115 0.0721436 4.54166 -0.405991 3.2636 0.366364C2.86551 0.587036 2.34171 1.12033 2.11124 1.52489C1.62935 2.3524 1.62935 2.49953 1.14746 22.4886C1.02175 27.9503 0.833179 36.1335 0.72842 40.694C0.623661 45.2361 0.435093 53.2723 0.309383 58.5316C0.204624 63.7909 0.0579605 69.3812 0.0160561 70.9443C-0.0258484 72.5074 0.0160561 74.2912 0.120815 74.898Z" fill="black"/>
</svg>
