<?xml version="1.0" standalone="no"?>
<!DOCTYPE svg PUBLIC "-//W3C//DTD SVG 20010904//EN"
 "http://www.w3.org/TR/2001/REC-SVG-20010904/DTD/svg10.dtd">
<svg version="1.0" xmlns="http://www.w3.org/2000/svg"
 width="1280.000000pt" height="640.000000pt" viewBox="0 0 1280.000000 640.000000"
 preserveAspectRatio="xMidYMid meet">
<metadata>
Created by potrace 1.15, written by Peter Selinger 2001-2017
</metadata>
<g transform="translate(0.000000,640.000000) scale(0.100000,-0.100000)"
fill="#000000" stroke="none">
<path d="M8725 4239 c-205 -31 -346 -141 -550 -429 -164 -233 -262 -321 -384
-344 -19 -3 -338 1 -710 9 -1455 32 -1926 42 -3901 85 -1009 22 -1401 30
-1837 40 -747 17 -940 17 -1003 1 -139 -35 -240 -113 -297 -229 -36 -71 -38
-82 -38 -166 1 -118 26 -184 102 -266 64 -70 141 -112 251 -136 82 -18 100
-18 1612 16 239 6 1265 28 2280 50 1015 22 2066 44 2335 50 270 6 639 15 820
18 182 4 355 4 384 -1 123 -18 214 -97 377 -328 123 -173 260 -319 344 -366
70 -39 159 -69 235 -77 33 -4 285 -2 560 3 500 11 993 22 1925 41 1197 25
1417 31 1453 41 21 6 54 25 73 42 69 63 50 154 -41 201 -40 21 -41 21 -1695
26 -944 3 -1664 9 -1675 14 -124 56 -134 168 -20 226 l49 25 1656 5 c1515 5
1658 6 1685 22 79 43 105 116 63 177 -12 19 -41 44 -63 55 l-40 21 -1775 5
-1775 5 -43 25 c-101 57 -95 156 11 213 l42 22 1775 5 c1627 5 1777 6 1805 22
79 43 105 116 63 177 -12 19 -41 44 -63 55 -40 21 -41 21 -1695 26 -944 3
-1664 9 -1675 14 -45 20 -84 58 -95 91 -17 52 11 102 76 135 l48 25 1656 5
c1515 5 1658 6 1685 22 79 43 105 116 63 177 -12 19 -41 44 -63 55 -45 23 -53
23 -1140 46 -297 6 -742 15 -990 20 -247 5 -684 14 -970 20 -286 5 -590 12
-675 14 -85 2 -182 0 -215 -5z"/>
</g>
</svg>
