<svg width="210" height="96" viewBox="0 0 210 96" fill="none" xmlns="http://www.w3.org/2000/svg">
<path d="M46.1905 54.7157C46.6813 54.7157 47.0588 54.9205 47.3231 55.3301C47.6251 55.7397 47.7761 56.3029 47.7761 57.0197C47.7761 58.3509 47.4175 59.4091 46.7002 60.1941C44.586 62.4811 42.5285 64.0853 40.5276 65.0069C38.5645 65.9285 36.186 66.3893 33.3923 66.3893C31.4292 66.3893 29.617 66.1675 27.9559 65.7237C26.2948 65.28 24.275 64.6144 21.8966 63.7269C19.7447 62.8736 17.6683 62.1739 15.6674 61.6277C13.742 64.8021 10.8539 66.3893 7.00311 66.3893C4.88896 66.3893 3.20896 65.9627 1.96311 65.1093C0.679518 64.2219 0.0377197 63.0955 0.0377197 61.7301C0.0377197 60.0576 0.924911 58.6752 2.69929 57.5829C4.47367 56.4565 6.83323 55.8933 9.77794 55.8933H10.5141L11.5335 40.9941C11.76 37.5808 12.4395 34.7648 13.5721 32.5461C14.7047 30.3275 16.2714 28.4331 18.2723 26.8629C20.009 25.4976 21.991 24.4736 24.2184 23.7909C26.4458 23.0741 28.8054 22.7157 31.297 22.7157C35.3743 22.7157 38.5078 23.6715 40.6975 25.5829C42.8872 27.4944 43.982 29.9861 43.982 33.0581C43.982 35.1403 43.5667 36.8299 42.7361 38.1269C41.9056 39.3899 40.7541 40.0213 39.2818 40.0213C38.2247 40.0213 37.3941 39.7995 36.7901 39.3557C36.186 38.8779 35.884 38.2123 35.884 37.3589C35.884 37.0517 35.9595 36.4885 36.1105 35.6693C36.337 34.7136 36.4503 33.8603 36.4503 33.1093C36.4503 31.6757 35.9784 30.5493 35.0346 29.7301C34.1285 28.8768 32.7317 28.4501 30.844 28.4501C27.5218 28.4501 24.9546 29.44 23.1424 31.4197C21.3303 33.3653 20.1788 36.4373 19.6881 40.6357L18.3856 52.2581C18.1968 53.8965 17.9514 55.3131 17.6494 56.5077C20.0656 56.8832 23.0858 57.4805 26.7101 58.2997C28.8242 58.7776 30.4476 59.1189 31.5802 59.3237C32.7128 59.5285 33.7132 59.6309 34.5815 59.6309C36.7712 59.6309 38.64 59.3067 40.1878 58.6581C41.7734 57.9755 43.2647 56.9003 44.6615 55.4325C45.1146 54.9547 45.6242 54.7157 46.1905 54.7157ZM48.9569 66.3893C47.258 66.3893 45.8611 65.6896 44.7663 64.2901C43.7092 62.8565 43.1807 61.0816 43.1807 58.9653C43.1807 56.4053 43.3694 54.0672 43.747 51.9509C44.1245 49.8005 44.7474 47.5307 45.6157 45.1413C45.9933 44.1173 46.5218 43.3835 47.2014 42.9397C47.8809 42.496 48.9569 42.2741 50.4292 42.2741C51.2598 42.2741 51.8261 42.3936 52.1281 42.6325C52.4679 42.8715 52.6378 43.2299 52.6378 43.7077C52.6378 43.9808 52.4301 44.9024 52.0148 46.4725C51.6373 47.7355 51.3353 48.8789 51.1088 49.9029C50.3537 53.4869 49.9762 55.8763 49.9762 57.0709C49.9762 57.7877 50.0706 58.2997 50.2593 58.6069C50.4481 58.88 50.7501 59.0165 51.1654 59.0165C51.7317 59.0165 52.4301 58.5045 53.2607 57.4805C54.129 56.4565 55.0351 54.9035 55.9789 52.8213C56.9605 50.7392 57.9043 48.1792 58.8103 45.1413C59.1124 44.1173 59.5654 43.3835 60.1694 42.9397C60.8112 42.496 61.7551 42.2741 63.0009 42.2741C63.8692 42.2741 64.4733 42.3765 64.813 42.5813C65.1528 42.752 65.3227 43.0933 65.3227 43.6053C65.3227 44.4587 64.8508 46.7968 63.907 50.6197C62.8499 54.9888 62.3214 57.6853 62.3214 58.7093C62.3214 59.3579 62.4724 59.8699 62.7744 60.2453C63.0764 60.5867 63.4728 60.7573 63.9636 60.7573C64.7187 60.7573 65.6059 60.3477 66.6252 59.5285C67.6823 58.6752 69.0791 57.3099 70.8157 55.4325C71.2688 54.9547 71.7784 54.7157 72.3447 54.7157C72.8355 54.7157 73.213 54.9205 73.4773 55.3301C73.7793 55.7397 73.9303 56.3029 73.9303 57.0197C73.9303 58.3851 73.5717 59.4432 72.8544 60.1941C71.231 62.0032 69.4755 63.488 67.5879 64.6485C65.738 65.8091 63.6238 66.3893 61.2454 66.3893C59.4333 66.3893 58.093 65.7579 57.2247 64.4949C56.3942 63.232 55.9789 61.4571 55.9789 59.1701C55.3371 61.4912 54.3744 63.2832 53.0908 64.5461C51.8072 65.7749 50.4292 66.3893 48.9569 66.3893ZM73.3593 66.3893C71.9247 66.3893 70.9054 65.7067 70.3014 64.3413C69.7351 62.976 69.4519 60.7915 69.4519 57.7877C69.4519 53.3504 70.1503 49.1349 71.5472 45.1413C71.887 44.1515 72.4344 43.4347 73.1894 42.9909C73.9823 42.5131 75.0771 42.2741 76.4739 42.2741C77.229 42.2741 77.7575 42.3595 78.0596 42.5301C78.3616 42.7008 78.5126 43.0251 78.5126 43.5029C78.5126 44.0491 78.2294 45.2779 77.6632 47.1893C77.2856 48.5547 76.9836 49.7493 76.7571 50.7733C76.5306 51.7973 76.3418 53.0603 76.1908 54.5621C77.4366 51.6267 78.8335 49.2373 80.3814 47.3941C81.9292 45.5509 83.4393 44.2368 84.9117 43.4517C86.4218 42.6667 87.7998 42.2741 89.0456 42.2741C91.4996 42.2741 92.7265 43.3835 92.7265 45.6021C92.7265 46.9333 92.3112 49.3397 91.4807 52.8213C90.7634 55.7909 90.4047 57.7536 90.4047 58.7093C90.4047 60.0747 90.9521 60.7573 92.047 60.7573C92.802 60.7573 93.6892 60.3477 94.7085 59.5285C95.7656 58.6752 97.1625 57.3099 98.8991 55.4325C99.3521 54.9547 99.8618 54.7157 100.428 54.7157C100.919 54.7157 101.296 54.9205 101.561 55.3301C101.863 55.7397 102.014 56.3029 102.014 57.0197C102.014 58.3851 101.655 59.4432 100.938 60.1941C99.3144 62.0032 97.5589 63.488 95.6712 64.6485C93.8214 65.8091 91.7072 66.3893 89.3288 66.3893C87.4034 66.3893 85.9499 65.8944 84.9683 64.9045C83.9867 63.8805 83.496 62.4128 83.496 60.5013C83.496 59.5456 83.7602 57.8389 84.2888 55.3813C84.7796 53.2309 85.025 51.7461 85.025 50.9269C85.025 50.3808 84.8173 50.1077 84.402 50.1077C83.9112 50.1077 83.2128 50.688 82.3068 51.8485C81.4384 52.9749 80.5324 54.4768 79.5886 56.3541C78.6825 58.2315 77.9463 60.2112 77.38 62.2933C76.9647 63.8976 76.4739 64.9899 75.9076 65.5701C75.3791 66.1163 74.5297 66.3893 73.3593 66.3893ZM108.248 66.3893C104.548 66.3893 101.66 65.4507 99.5839 63.5733C97.5452 61.6619 96.5259 59.1531 96.5259 56.0469C96.5259 53.2821 97.1299 50.8587 98.338 48.7765C99.5461 46.6944 101.113 45.0901 103.038 43.9637C104.964 42.8373 106.983 42.2741 109.098 42.2741C111.174 42.2741 112.778 42.8373 113.911 43.9637C115.081 45.056 115.667 46.4725 115.667 48.2133C115.667 49.6469 115.308 50.8587 114.591 51.8485C113.911 52.8384 113.005 53.3333 111.872 53.3333C111.155 53.3333 110.57 53.1797 110.117 52.8725C109.702 52.5653 109.494 52.1387 109.494 51.5925C109.494 51.3536 109.532 51.0805 109.607 50.7733C109.683 50.4661 109.739 50.2443 109.777 50.1077C109.966 49.5957 110.06 49.1179 110.06 48.6741C110.06 48.2304 109.928 47.8891 109.664 47.6501C109.437 47.4112 109.098 47.2917 108.645 47.2917C107.776 47.2917 106.965 47.6501 106.209 48.3669C105.454 49.0496 104.85 49.9883 104.397 51.1829C103.944 52.3776 103.718 53.6917 103.718 55.1253C103.718 59.0848 105.624 61.0645 109.437 61.0645C110.985 61.0645 112.646 60.6037 114.421 59.6821C116.233 58.7264 118.007 57.3099 119.744 55.4325C120.197 54.9547 120.707 54.7157 121.273 54.7157C121.764 54.7157 122.141 54.9205 122.405 55.3301C122.707 55.7397 122.858 56.3029 122.858 57.0197C122.858 58.3168 122.5 59.3749 121.783 60.1941C120.008 62.1739 117.875 63.7099 115.383 64.8021C112.929 65.8603 110.551 66.3893 108.248 66.3893ZM149.71 54.7157C150.201 54.7157 150.578 54.9205 150.843 55.3301C151.145 55.7397 151.296 56.3029 151.296 57.0197C151.296 58.3851 150.937 59.4432 150.22 60.1941C148.483 62.0032 146.69 63.488 144.84 64.6485C143.028 65.8091 140.951 66.3893 138.611 66.3893C136.685 66.3893 135.232 65.8944 134.25 64.9045C133.269 63.8805 132.778 62.4128 132.778 60.5013C132.778 59.5456 133.042 57.8389 133.571 55.3813C134.062 53.2309 134.307 51.7461 134.307 50.9269C134.307 50.3808 134.099 50.1077 133.684 50.1077C133.193 50.1077 132.495 50.688 131.589 51.8485C130.683 52.9749 129.777 54.4768 128.871 56.3541C127.965 58.2315 127.228 60.2112 126.662 62.2933C125.945 65.024 124.17 66.3893 121.339 66.3893C120.206 66.3893 119.451 66.0309 119.074 65.3141C118.734 64.5632 118.564 63.232 118.564 61.3205C118.564 60.2283 118.583 59.3579 118.621 58.7093L118.677 54.6133C118.677 49.3568 119.263 43.8784 120.433 38.1781C121.641 32.4779 123.396 27.6992 125.699 23.8421C128.04 19.9509 130.834 18.0053 134.08 18.0053C135.817 18.0053 137.214 18.688 138.271 20.0533C139.366 21.3845 139.913 23.1253 139.913 25.2757C139.913 28.7232 138.8 32.3072 136.572 36.0277C134.345 39.7141 130.72 44.032 125.699 48.9813C125.586 50.7563 125.529 52.5824 125.529 54.4597C126.775 51.5584 128.153 49.2032 129.663 47.3941C131.211 45.5509 132.721 44.2368 134.194 43.4517C135.704 42.6667 137.082 42.2741 138.328 42.2741C140.782 42.2741 142.009 43.3835 142.009 45.6021C142.009 46.9333 141.593 49.3397 140.763 52.8213C140.045 55.7909 139.687 57.7536 139.687 58.7093C139.687 60.0747 140.234 60.7573 141.329 60.7573C142.084 60.7573 142.971 60.3477 143.991 59.5285C145.048 58.6752 146.445 57.3099 148.181 55.4325C148.634 54.9547 149.144 54.7157 149.71 54.7157ZM132.891 23.0741C132.212 23.0741 131.457 23.9616 130.626 25.7365C129.796 27.4773 128.984 29.8496 128.191 32.8533C127.436 35.8229 126.813 39.0656 126.322 42.5813C128.663 40.0896 130.588 37.376 132.098 34.4405C133.646 31.5051 134.42 28.8427 134.42 26.4533C134.42 25.3611 134.288 24.5248 134.024 23.9445C133.76 23.3643 133.382 23.0741 132.891 23.0741ZM166.526 42.2741C167.395 42.2741 167.999 42.3765 168.338 42.5813C168.678 42.7861 168.848 43.1275 168.848 43.6053C168.848 44.4245 168.357 47.3429 167.376 52.3605C166.507 57.1733 165.998 60.0235 165.847 60.9109C164.45 69.6832 162.524 76.6293 160.07 81.7493C157.617 86.8693 154.351 89.4293 150.274 89.4293C148.348 89.4293 146.781 88.8832 145.573 87.7909C144.365 86.7328 143.761 85.3333 143.761 83.5925C143.761 81.9883 144.158 80.3499 144.95 78.6773C145.781 77.0048 147.291 75.0763 149.481 72.8917C151.708 70.7413 154.842 68.2667 158.881 65.4677L159.051 64.2901C159.315 63.0272 159.617 61.2181 159.957 58.8629C159.202 61.3205 158.145 63.1979 156.786 64.4949C155.427 65.7579 153.992 66.3893 152.482 66.3893C150.783 66.3893 149.386 65.6896 148.292 64.2901C147.235 62.8565 146.706 61.0816 146.706 58.9653C146.706 56.4053 146.895 54.0672 147.272 51.9509C147.65 49.8005 148.273 47.5307 149.141 45.1413C149.519 44.1173 150.047 43.3835 150.727 42.9397C151.406 42.496 152.482 42.2741 153.954 42.2741C154.785 42.2741 155.351 42.3936 155.653 42.6325C155.993 42.8715 156.163 43.2299 156.163 43.7077C156.163 43.9808 155.955 44.9024 155.54 46.4725C155.163 47.7355 154.861 48.8789 154.634 49.9029C154.332 51.3024 154.068 52.6507 153.841 53.9477C153.615 55.2107 153.501 56.2517 153.501 57.0709C153.501 58.368 153.898 59.0165 154.691 59.0165C155.257 59.0165 155.955 58.5045 156.786 57.4805C157.654 56.4565 158.56 54.9035 159.504 52.8213C160.486 50.7392 161.43 48.1792 162.336 45.1413C162.638 44.1173 163.091 43.3835 163.695 42.9397C164.337 42.496 165.28 42.2741 166.526 42.2741ZM150.897 84.4629C151.84 84.4629 152.897 83.4731 154.068 81.4933C155.238 79.5136 156.408 76.2197 157.579 71.6117C154.672 73.8304 152.558 75.8443 151.236 77.6533C149.953 79.4965 149.311 81.1008 149.311 82.4661C149.311 83.0464 149.424 83.5243 149.651 83.8997C149.915 84.2752 150.33 84.4629 150.897 84.4629Z" fill="#119146"/>
<path d="M187.864 47.047L185.664 45.0133C181.972 47.616 179.541 51.6267 179.326 56.1777H182.402C182.633 52.409 184.725 49.1093 187.864 47.047ZM206.923 56.1777H210C209.769 51.6267 207.339 47.616 203.662 45.0133L201.478 47.047C204.585 49.1093 206.693 52.409 206.923 56.1777ZM203.893 56.889C203.893 52.5227 201.37 48.8676 196.97 47.9004V46.9333C196.97 45.753 195.94 44.8 194.663 44.8C193.386 44.8 192.355 45.753 192.355 46.9333V47.9004C187.941 48.8676 185.433 52.5084 185.433 56.889V64L182.356 66.8444V68.2667H206.969V66.8444L203.893 64V56.889ZM194.663 72.5333C194.878 72.5333 195.078 72.519 195.278 72.4764C196.278 72.2773 197.093 71.6516 197.493 70.7983C197.647 70.457 197.724 70.087 197.724 69.689H191.571C191.586 71.2533 192.955 72.5333 194.663 72.5333Z" fill="#119146"/>
</svg>
