<svg width="13" height="14" viewBox="0 0 13 14" fill="none" xmlns="http://www.w3.org/2000/svg">
<path d="M2.61444 5.69193C3.65444 7.75972 5.33 9.44757 7.37389 10.507L8.96278 8.89957C9.15778 8.70229 9.44667 8.63653 9.69944 8.72421C10.5083 8.99456 11.3822 9.14069 12.2778 9.14069C12.675 9.14069 13 9.46949 13 9.87136V12.4214C13 12.8233 12.675 13.1521 12.2778 13.1521C5.49611 13.1521 0 7.59167 0 0.730671C0 0.328802 0.325 0 0.722222 0H3.25C3.64722 0 3.97222 0.328802 3.97222 0.730671C3.97222 1.64401 4.11667 2.52081 4.38389 3.33917C4.46333 3.5949 4.40556 3.87986 4.20333 4.08445L2.61444 5.69193Z" fill="#119146"/>
</svg>
