<svg width="16" height="13" viewBox="0 0 16 13" fill="none" xmlns="http://www.w3.org/2000/svg">
<path d="M7.99492 10.5105L4.24198 12.8257C4.05603 12.9486 3.85316 13.0065 3.6334 12.9994C3.41363 12.9929 3.21922 12.9418 3.05017 12.8462C2.88112 12.7506 2.75027 12.6208 2.65763 12.4569C2.56432 12.293 2.55992 12.1154 2.64445 11.9242L4.08984 8.13386L0.412968 6.02356C0.210107 5.91429 0.0833182 5.77087 0.0326027 5.59331C-0.0181127 5.41574 -0.00966002 5.25183 0.0579605 5.10159C0.125581 4.95134 0.243917 4.81803 0.412968 4.70166C0.58202 4.58583 0.784881 4.52791 1.02155 4.52791H5.56058L7.03133 0.594161C7.11586 0.402937 7.24704 0.255967 7.42488 0.153253C7.60205 0.0510844 7.79206 0 7.99492 0C8.19779 0 8.3878 0.0510844 8.56497 0.153253C8.74281 0.255967 8.87399 0.402937 8.95852 0.594161L10.4293 4.52791H14.9683C15.205 4.52791 15.4078 4.58583 15.5769 4.70166C15.7459 4.81803 15.8643 4.95134 15.9319 5.10159C15.9995 5.25183 16.008 5.41574 15.9572 5.59331C15.9065 5.77087 15.7797 5.91429 15.5769 6.02356L11.9 8.13386L13.3454 11.9242C13.4299 12.1154 13.4259 12.293 13.3332 12.4569C13.2399 12.6208 13.1087 12.7506 12.9397 12.8462C12.7706 12.9418 12.5762 12.9929 12.3564 12.9994C12.1367 13.0065 11.9338 12.9486 11.7479 12.8257L7.99492 10.5105Z" fill="#FFC20D"/>
</svg>
