<svg width="121" height="24" viewBox="0 0 121 24" fill="none" xmlns="http://www.w3.org/2000/svg">
<g clip-path="url(#clip0_31_95)">
<path d="M28.473 21.0942C23.2338 21.0942 20.7385 18.3722 20.7385 15.4759V2.41251H26.3408V15.0477C26.3408 15.8601 27.0303 16.5303 28.4736 16.5303C29.8745 16.5303 30.6053 15.864 30.6053 15.0477V2.41251H36.2076V15.4759C36.2076 18.3948 33.4371 21.0942 28.473 21.0942ZM47.3733 20.7021C51.1375 20.7021 53.6781 18.7592 53.6781 15.1357C53.6781 13.2165 52.6851 11.9003 51.0438 11.0236C52.4588 10.1125 53.1736 8.88101 53.1736 7.41931C53.1736 4.58165 51.1051 2.4142 47.0557 2.41251H37.9839V20.7021H47.3733ZM47.5719 8.03874C47.5719 8.99441 47.1205 9.67759 46.1381 9.67759L43.542 9.67703V6.40103H46.1381C47.1087 6.40103 47.5719 7.04585 47.5719 8.03874ZM46.4109 16.6335H43.542V13.1612H46.4109C47.4605 13.1612 47.9898 13.7998 47.9898 14.8931C47.9898 15.9436 47.4841 16.6324 46.4109 16.6335ZM15.2758 20.5075C18.0281 19.9631 19.7218 18.2577 19.7218 15.4065C19.7218 12.0109 17.4517 11.0332 13.318 9.16986C11.3508 8.28246 10.8687 8.0489 10.8687 7.48645C10.8687 7.10113 11.1646 6.7288 11.7698 6.73839L18.7329 6.84671V2.44692C18.7329 2.44692 14.4973 2.38149 12.9786 2.35835C12.2377 2.34703 11.1115 2.37132 10.4956 2.44749C7.46877 2.82547 5.40665 4.72721 5.40665 7.45486C5.40665 10.9774 8.04279 12.078 11.405 13.6007C13.4954 14.5484 14.2203 14.795 14.2203 15.5216C14.2203 15.9238 13.9245 16.3086 13.2231 16.2973L5.80799 16.2437V13.8348L0 18.4264L5.80799 23.0163V20.6203L12.4104 20.6649C13.275 20.6644 14.5468 20.6514 15.2758 20.5075Z" fill="#FFC20D"/>
<path d="M114.879 0V2.30187H111.026C107.761 2.30187 106.386 4.10766 106.386 6.71853V9.60201C106.386 10.2908 105.896 11.0971 104.233 11.0971C102.571 11.0971 102.082 10.2908 102.082 9.60201H102.08V2.41302H96.5373V10.1277C96.5373 12.6805 98.3625 14.62 101.428 15.4132V20.7039H107.091V15.4132C110.204 14.6025 111.927 12.6703 111.927 10.1277V7.29852C111.927 7.02886 112.068 6.86813 112.392 6.86813L114.879 6.86681V9.18289L120.687 4.59175L114.879 0ZM87.467 1.87891C82.5926 1.87891 79.7791 4.34573 79.7791 7.62907V20.7042H85.3513V15.4051H89.5828V20.7042H95.1564V7.62907C95.1564 4.32599 92.2908 1.87891 87.467 1.87891ZM54.9406 2.41238V15.3121C54.9406 18.2976 56.9838 21.0112 61.9809 21.0112C63.8573 21.0112 65.3545 20.4358 66.4713 19.5833C67.6069 20.4392 69.1568 21.0112 71.1524 21.0112C75.8253 21.0112 78.0393 18.293 78.0393 15.3121V2.41238H72.4482V15.1954C72.4482 15.7607 72.14 16.3738 70.8617 16.3738C69.5829 16.3738 69.2847 15.7342 69.2847 15.1954V2.41238H63.6966V15.1954C63.6966 15.7489 63.3742 16.3738 62.1 16.3738C60.8424 16.3738 60.5325 15.7156 60.5325 15.1954V2.41238H54.9406ZM87.4684 6.44614C88.9512 6.44614 89.5835 7.0729 89.5835 7.94281L89.5848 11.2082H85.352V7.94281C85.352 7.0808 85.9768 6.44614 87.4684 6.44614Z" fill="#009132"/>
</g>
<defs>
<clipPath id="clip0_31_95">
<rect width="120.687" height="23.0164" fill="white"/>
</clipPath>
</defs>
</svg>
