<svg width="31" height="31" viewBox="0 0 31 31" fill="none" xmlns="http://www.w3.org/2000/svg">
<path d="M0 31L2.18944 23.0395C0.838399 20.7093 0.128485 18.0678 0.129783 15.3592C0.133677 6.89104 7.05761 0 15.5649 0C19.6933 0.00129167 23.5686 1.60167 26.4835 4.50533C29.3972 7.409 31.0013 11.2685 31 15.3734C30.9961 23.8429 24.0722 30.7339 15.5649 30.7339C12.9822 30.7326 10.4372 30.0881 8.18283 28.8636L0 31ZM8.56179 26.0826C10.737 27.3678 12.8135 28.1377 15.5597 28.139C22.6303 28.139 28.3901 22.4117 28.394 15.3708C28.3965 8.31575 22.664 2.59625 15.5701 2.59367C8.49431 2.59367 2.73842 8.32092 2.73583 15.3605C2.73453 18.2345 3.58072 20.3864 5.00184 22.6377L3.70531 27.3497L8.56179 26.0826ZM23.3402 19.025C23.2442 18.8648 22.9872 18.7692 22.6004 18.5767C22.215 18.3843 20.3188 17.4556 19.9645 17.3277C19.6115 17.1998 19.3546 17.1353 19.0963 17.5202C18.8393 17.9038 18.0996 18.7692 17.875 19.025C17.6505 19.2807 17.4247 19.313 17.0392 19.1205C16.6538 18.9281 15.4104 18.5238 13.9374 17.2153C12.7914 16.1975 12.0166 14.9407 11.7921 14.5558C11.5676 14.1722 11.7687 13.9642 11.9608 13.773C12.1347 13.6012 12.3463 13.3248 12.5396 13.1001C12.7356 12.8779 12.7992 12.7177 12.929 12.4607C13.0575 12.205 12.9939 11.9802 12.8966 11.7878C12.7992 11.5966 12.0283 9.70687 11.7077 8.93833C11.3937 8.19046 11.0757 8.29121 10.8395 8.27958L10.0997 8.26667C9.84275 8.26667 9.42485 8.36225 9.07184 8.74717C8.71883 9.13208 7.7221 10.0595 7.7221 11.9492C7.7221 13.8389 9.10429 15.664 9.29636 15.9198C9.48974 16.1755 12.0153 20.0531 15.8842 21.7155C16.8043 22.1108 17.5233 22.3471 18.0827 22.5241C19.0067 22.816 19.8477 22.7747 20.5122 22.6765C21.2533 22.5667 22.7938 21.7478 23.1157 20.8514C23.4375 19.9537 23.4375 19.1851 23.3402 19.025Z" fill="#119146"/>
</svg>
